<svg width="279" height="31" viewBox="0 0 279 31" fill="none" xmlns="http://www.w3.org/2000/svg">
<path d="M0.0667389 30V1.2H4.88674V13.32H18.5267V1.2H23.3267V30H18.5267V17.84H4.88674V30H0.0667389ZM30.3625 30V1.2H48.9625V5.72H35.1825V12.82H46.5625V17.34H35.1825V25.48H48.9625V30H30.3625ZM53.1895 30L62.2695 1.2H69.3295L78.4095 30H73.4495L65.2095 4.16H66.2895L58.1495 30H53.1895ZM58.2495 23.76V19.26H73.3695V23.76H58.2495ZM83.454 30V1.2H92.634C92.874 1.2 93.3473 1.20667 94.054 1.22C94.774 1.23333 95.4673 1.28 96.134 1.36C98.414 1.65333 100.341 2.46667 101.914 3.8C103.501 5.12 104.701 6.80667 105.514 8.86C106.327 10.9133 106.734 13.16 106.734 15.6C106.734 18.04 106.327 20.2867 105.514 22.34C104.701 24.3933 103.501 26.0867 101.914 27.42C100.341 28.74 98.414 29.5467 96.134 29.84C95.4807 29.92 94.794 29.9667 94.074 29.98C93.354 29.9933 92.874 30 92.634 30H83.454ZM88.354 25.46H92.634C93.034 25.46 93.5407 25.4467 94.154 25.42C94.7807 25.3933 95.334 25.3333 95.814 25.24C97.174 24.9867 98.2807 24.38 99.134 23.42C99.9873 22.46 100.614 21.2933 101.014 19.92C101.427 18.5467 101.634 17.1067 101.634 15.6C101.634 14.04 101.427 12.5733 101.014 11.2C100.601 9.82666 99.9607 8.67333 99.094 7.74C98.2407 6.80667 97.1473 6.21333 95.814 5.96C95.334 5.85333 94.7807 5.79333 94.154 5.78C93.5407 5.75333 93.034 5.74 92.634 5.74H88.354V25.46ZM112.89 30V1.2H124.79C125.07 1.2 125.43 1.21333 125.87 1.24C126.31 1.25333 126.717 1.29333 127.09 1.36C128.757 1.61333 130.13 2.16666 131.21 3.02C132.304 3.87333 133.11 4.95333 133.63 6.26C134.164 7.55333 134.43 8.99333 134.43 10.58C134.43 12.1533 134.164 13.5933 133.63 14.9C133.097 16.1933 132.284 17.2667 131.19 18.12C130.11 18.9733 128.744 19.5267 127.09 19.78C126.717 19.8333 126.304 19.8733 125.85 19.9C125.41 19.9267 125.057 19.94 124.79 19.94H117.71V30H112.89ZM117.71 15.44H124.59C124.857 15.44 125.157 15.4267 125.49 15.4C125.824 15.3733 126.13 15.32 126.41 15.24C127.21 15.04 127.837 14.6867 128.29 14.18C128.757 13.6733 129.084 13.1 129.27 12.46C129.47 11.82 129.57 11.1933 129.57 10.58C129.57 9.96667 129.47 9.34 129.27 8.7C129.084 8.04667 128.757 7.46667 128.29 6.96C127.837 6.45333 127.21 6.1 126.41 5.9C126.13 5.82 125.824 5.77333 125.49 5.76C125.157 5.73333 124.857 5.72 124.59 5.72H117.71V15.44ZM139.866 30V1.2H144.686V13.32H158.326V1.2H163.126V30H158.326V17.84H144.686V30H139.866ZM182.342 30.6C179.462 30.6 176.995 29.9733 174.942 28.72C172.888 27.4533 171.308 25.6933 170.202 23.44C169.108 21.1867 168.562 18.5733 168.562 15.6C168.562 12.6267 169.108 10.0133 170.202 7.76C171.308 5.50667 172.888 3.75333 174.942 2.5C176.995 1.23333 179.462 0.599999 182.342 0.599999C185.222 0.599999 187.688 1.23333 189.742 2.5C191.808 3.75333 193.388 5.50667 194.482 7.76C195.588 10.0133 196.142 12.6267 196.142 15.6C196.142 18.5733 195.588 21.1867 194.482 23.44C193.388 25.6933 191.808 27.4533 189.742 28.72C187.688 29.9733 185.222 30.6 182.342 30.6ZM182.342 26.06C184.275 26.0733 185.882 25.6467 187.162 24.78C188.455 23.9133 189.422 22.6933 190.062 21.12C190.715 19.5467 191.042 17.7067 191.042 15.6C191.042 13.4933 190.715 11.6667 190.062 10.12C189.422 8.56 188.455 7.34667 187.162 6.48C185.882 5.61333 184.275 5.16667 182.342 5.14C180.408 5.12667 178.802 5.55333 177.522 6.42C176.242 7.28667 175.275 8.50667 174.622 10.08C173.982 11.6533 173.662 13.4933 173.662 15.6C173.662 17.7067 173.982 19.54 174.622 21.1C175.262 22.6467 176.222 23.8533 177.502 24.72C178.795 25.5867 180.408 26.0333 182.342 26.06ZM201.551 30V1.2H206.431L219.791 21.5V1.2H224.671V30H219.791L206.431 9.7V30H201.551ZM231.691 30V1.2H250.291V5.72H236.511V12.82H247.891V17.34H236.511V25.48H250.291V30H231.691ZM266.904 30.6C264.798 30.6 262.898 30.2333 261.204 29.5C259.524 28.7667 258.138 27.72 257.044 26.36C255.964 24.9867 255.278 23.36 254.984 21.48L259.984 20.72C260.411 22.4267 261.284 23.7467 262.604 24.68C263.938 25.6133 265.471 26.08 267.204 26.08C268.231 26.08 269.198 25.92 270.104 25.6C271.011 25.28 271.744 24.8133 272.304 24.2C272.878 23.5867 273.164 22.8333 273.164 21.94C273.164 21.54 273.098 21.1733 272.964 20.84C272.831 20.4933 272.631 20.1867 272.364 19.92C272.111 19.6533 271.778 19.4133 271.364 19.2C270.964 18.9733 270.498 18.78 269.964 18.62L262.524 16.42C261.884 16.2333 261.191 15.9867 260.444 15.68C259.711 15.36 259.011 14.9267 258.344 14.38C257.691 13.82 257.151 13.1133 256.724 12.26C256.311 11.3933 256.104 10.3267 256.104 9.06C256.104 7.20666 256.571 5.65333 257.504 4.4C258.451 3.13333 259.718 2.18666 261.304 1.56C262.904 0.933332 264.678 0.626665 266.624 0.639999C268.598 0.653331 270.358 0.993331 271.904 1.66C273.451 2.31333 274.744 3.26667 275.784 4.52C276.824 5.77333 277.558 7.28667 277.984 9.06L272.804 9.96C272.591 8.94667 272.178 8.08667 271.564 7.38C270.964 6.66 270.224 6.11333 269.344 5.74C268.478 5.36667 267.551 5.16667 266.564 5.14C265.604 5.12667 264.711 5.27333 263.884 5.58C263.071 5.87333 262.411 6.3 261.904 6.86C261.411 7.42 261.164 8.07333 261.164 8.82C261.164 9.52667 261.378 10.1067 261.804 10.56C262.231 11 262.758 11.3533 263.384 11.62C264.024 11.8733 264.671 12.0867 265.324 12.26L270.484 13.7C271.191 13.8867 271.984 14.14 272.864 14.46C273.744 14.78 274.591 15.2267 275.404 15.8C276.218 16.3733 276.884 17.1267 277.404 18.06C277.938 18.9933 278.204 20.18 278.204 21.62C278.204 23.1133 277.891 24.4267 277.264 25.56C276.651 26.68 275.818 27.6133 274.764 28.36C273.711 29.1067 272.504 29.6667 271.144 30.04C269.798 30.4133 268.384 30.6 266.904 30.6Z" fill="white"/>
</svg>
